<svg width="168" height="40" viewBox="0 0 168 40" fill="none" xmlns="http://www.w3.org/2000/svg">
<g id="Content">
<g id="Group">
<path id="Vector" d="M19.2814 11.8198V30.3295H12.8271L3.91994 16.1596V30.3295H0V11.7774L3.69525 8.34955L15.3615 26.9085V13.6483L6.67017 5.59074L9.61866 2.85714L19.2814 11.8198Z" fill="#2E70EF"/>
<path id="Vector_2" d="M22.3242 22.5343V12.7479H25.8895V22.1219C25.8895 25.5795 27.1991 27.308 29.8183 27.3072C31.1826 27.3072 32.2498 26.7978 33.0201 25.7789C33.7903 24.76 34.1758 23.347 34.1765 21.5399V12.7479H37.7408V30.3295H34.2085V28.0978C32.9323 29.7231 31.1939 30.5358 28.9933 30.5358C27.0107 30.5358 25.4041 29.9061 24.1734 28.6465C22.9429 27.387 22.3264 25.3496 22.3242 22.5343Z" fill="#0F172A"/>
<path id="Vector_3" d="M39.2273 12.7479H43.057L47.7115 26.3437L52.3001 12.7479H56.0625L49.8241 30.3296H45.4668L39.2273 12.7479Z" fill="#0F172A"/>
<path id="Vector_4" d="M56.1621 21.5387C56.1621 18.8601 56.9544 16.691 58.539 15.0312C60.1235 13.3715 62.2031 12.5417 64.7774 12.5417C67.3525 12.5417 69.4323 13.3715 71.0169 15.0312C72.6015 16.691 73.3937 18.8601 73.3937 21.5387C73.3937 24.2403 72.6015 26.4152 71.0169 28.0634C69.4323 29.7117 67.3525 30.5358 64.7774 30.5358C62.2038 30.5358 60.1242 29.7117 58.539 28.0634C56.9536 26.4152 56.1614 24.2403 56.1621 21.5387ZM61.179 25.7457C62.0807 26.8318 63.2802 27.3748 64.7774 27.3748C66.2746 27.3748 67.4814 26.8318 68.3978 25.7457C69.3104 24.658 69.7672 23.2557 69.7679 21.5387C69.7686 19.8217 69.3119 18.4194 68.3978 17.3318C67.4843 16.2441 66.2793 15.7004 64.7829 15.7004C63.2865 15.7004 62.087 16.2441 61.1846 17.3318C60.2822 18.4194 59.8309 19.8217 59.8309 21.5387C59.8309 23.2557 60.2803 24.658 61.179 25.7457Z" fill="#0F172A"/>
<path id="Vector_5" d="M78.6103 24.5254C78.6353 24.9749 78.7583 25.4126 78.9699 25.8054C79.1816 26.1982 79.4762 26.5358 79.8318 26.7927C80.58 27.3647 81.5816 27.6508 82.8364 27.6508C83.9379 27.6508 84.8237 27.4445 85.4941 27.0321C86.1646 26.6196 86.5001 26.059 86.5008 25.3503C86.5141 24.9751 86.4345 24.6027 86.2695 24.2687C86.1153 23.9823 85.8349 23.7589 85.4281 23.5985C85.0586 23.4502 84.6776 23.3352 84.2892 23.2548C83.9367 23.1868 83.3754 23.107 82.6051 23.0154C82.5182 22.9954 82.4297 22.9838 82.3408 22.981C81.4192 22.8754 80.5043 22.7147 79.6005 22.4998C78.8694 22.3164 78.1607 22.0474 77.4879 21.6979C76.8474 21.3823 76.3129 20.8737 75.9537 20.2382C75.6122 19.6195 75.4415 18.8756 75.4415 18.0064C75.4415 16.3574 76.0851 15.0296 77.3723 14.0229C78.6595 13.0162 80.3267 12.5239 82.3738 12.5461C84.4863 12.5461 86.2086 13.0384 87.5406 14.0229C88.8726 15.0074 89.5932 16.3822 89.7026 18.1473H86.2034C86.1539 17.7451 86.0223 17.3584 85.8173 17.0134C85.6123 16.6684 85.3388 16.3729 85.015 16.147C84.3322 15.6437 83.4737 15.392 82.4399 15.392C81.384 15.392 80.5367 15.5979 79.8979 16.0095C79.259 16.4212 78.94 16.9821 78.9407 17.6925C78.9328 17.9322 78.9702 18.1712 79.0509 18.396C79.139 18.6045 79.2817 18.7832 79.4628 18.9115C79.6444 19.0501 79.838 19.1709 80.0411 19.2724C80.3111 19.3888 80.5942 19.4693 80.8836 19.5119C81.2569 19.5818 81.5764 19.6264 81.8408 19.6665L82.9961 19.8212C83.8773 19.9373 84.62 20.0576 85.2243 20.182C85.8647 20.3189 86.4938 20.5081 87.1055 20.748C87.672 20.953 88.1978 21.2637 88.6574 21.6645C89.066 22.0539 89.392 22.5276 89.6145 23.0554C89.8781 23.6828 90.0081 24.3621 89.9945 25.0467C89.9945 26.6957 89.3234 28.0235 87.9811 29.0302C86.6389 30.0369 84.9221 30.5406 82.831 30.5413C80.5407 30.5413 78.6918 30.009 77.2842 28.9443C75.8766 27.8795 75.154 26.4066 75.1166 24.5254H78.6103Z" fill="#0F172A"/>
</g>
<g id="Presentation Builder">
<g id="Vector_6">
<path d="M132.774 30.4318V23.8864H133.745V24.875H133.814C133.933 24.5511 134.149 24.2883 134.461 24.0866C134.774 23.8849 135.126 23.7841 135.518 23.7841C135.592 23.7841 135.684 23.7855 135.795 23.7883C135.906 23.7912 135.99 23.7955 136.047 23.8011V24.8239C136.012 24.8153 135.934 24.8026 135.812 24.7855C135.693 24.7656 135.566 24.7557 135.433 24.7557C135.115 24.7557 134.831 24.8224 134.581 24.956C134.333 25.0866 134.137 25.2685 133.993 25.5014C133.85 25.7315 133.779 25.9943 133.779 26.2898V30.4318H132.774Z" fill="#475569"/>
<path d="M128.534 30.5682C127.903 30.5682 127.359 30.429 126.902 30.1506C126.447 29.8693 126.096 29.4773 125.849 28.9744C125.605 28.4687 125.483 27.8807 125.483 27.2102C125.483 26.5398 125.605 25.9489 125.849 25.4375C126.096 24.9233 126.44 24.5227 126.88 24.2358C127.324 23.946 127.841 23.8011 128.431 23.8011C128.772 23.8011 129.109 23.858 129.441 23.9716C129.774 24.0852 130.076 24.2699 130.349 24.5256C130.622 24.7784 130.839 25.1136 131.001 25.5312C131.163 25.9489 131.244 26.4631 131.244 27.0739V27.5H126.199V26.6307H130.221C130.221 26.2614 130.147 25.9318 130 25.642C129.855 25.3523 129.647 25.1236 129.377 24.956C129.11 24.7883 128.795 24.7045 128.431 24.7045C128.031 24.7045 127.684 24.804 127.392 25.0028C127.102 25.1989 126.879 25.4545 126.723 25.7699C126.566 26.0852 126.488 26.4233 126.488 26.7841V27.3636C126.488 27.858 126.574 28.277 126.744 28.6207C126.917 28.9616 127.157 29.2216 127.464 29.4006C127.771 29.5767 128.127 29.6648 128.534 29.6648C128.798 29.6648 129.037 29.6278 129.25 29.554C129.466 29.4773 129.652 29.3636 129.808 29.2131C129.964 29.0597 130.085 28.8693 130.17 28.642L131.142 28.9148C131.039 29.2443 130.868 29.5341 130.626 29.7841C130.385 30.0312 130.086 30.2244 129.731 30.3636C129.376 30.5 128.977 30.5682 128.534 30.5682Z" fill="#475569"/>
<path d="M120.808 30.5682C120.262 30.5682 119.781 30.4304 119.363 30.1548C118.946 29.8764 118.619 29.4844 118.383 28.9787C118.147 28.4702 118.029 27.8693 118.029 27.1761C118.029 26.4886 118.147 25.892 118.383 25.3864C118.619 24.8807 118.947 24.4901 119.368 24.2145C119.788 23.9389 120.274 23.8011 120.825 23.8011C121.251 23.8011 121.588 23.8722 121.835 24.0142C122.085 24.1534 122.275 24.3125 122.406 24.4915C122.539 24.6676 122.643 24.8125 122.717 24.9261H122.802V21.7045H123.808V30.4318H122.836V29.4261H122.717C122.643 29.5455 122.538 29.696 122.402 29.8778C122.265 30.0568 122.071 30.2173 121.818 30.3594C121.565 30.4986 121.228 30.5682 120.808 30.5682ZM120.944 29.6648C121.348 29.6648 121.689 29.5597 121.967 29.3494C122.245 29.1364 122.457 28.8423 122.602 28.4673C122.747 28.0895 122.819 27.6534 122.819 27.1591C122.819 26.6705 122.748 26.2429 122.606 25.8764C122.464 25.5071 122.254 25.2202 121.975 25.0156C121.697 24.8082 121.353 24.7045 120.944 24.7045C120.518 24.7045 120.163 24.8139 119.879 25.0327C119.598 25.2486 119.386 25.5426 119.244 25.9148C119.105 26.2841 119.035 26.6989 119.035 27.1591C119.035 27.625 119.106 28.0483 119.248 28.429C119.393 28.8068 119.606 29.108 119.887 29.3324C120.172 29.554 120.524 29.6648 120.944 29.6648Z" fill="#475569"/>
<path d="M116.494 21.7045V30.4318H115.489V21.7045H116.494Z" fill="#475569"/>
<path d="M112.641 30.4318V23.8864H113.647V30.4318H112.641ZM113.152 22.7955C112.956 22.7955 112.787 22.7287 112.645 22.5952C112.506 22.4616 112.436 22.3011 112.436 22.1136C112.436 21.9261 112.506 21.7656 112.645 21.6321C112.787 21.4986 112.956 21.4318 113.152 21.4318C113.348 21.4318 113.516 21.4986 113.655 21.6321C113.797 21.7656 113.868 21.9261 113.868 22.1136C113.868 22.3011 113.797 22.4616 113.655 22.5952C113.516 22.7287 113.348 22.7955 113.152 22.7955Z" fill="#475569"/>
<path d="M109.793 27.7557V23.8864H110.799V30.4318H109.793V29.3239H109.725C109.572 29.6562 109.333 29.9389 109.009 30.1719C108.685 30.402 108.276 30.517 107.782 30.517C107.373 30.517 107.009 30.4276 106.691 30.2486C106.373 30.0668 106.123 29.794 105.941 29.4304C105.759 29.0639 105.668 28.6023 105.668 28.0455V23.8864H106.674V27.9773C106.674 28.4545 106.808 28.8352 107.075 29.1193C107.344 29.4034 107.688 29.5455 108.106 29.5455C108.356 29.5455 108.61 29.4815 108.869 29.3537C109.13 29.2259 109.349 29.0298 109.525 28.7656C109.704 28.5014 109.793 28.1648 109.793 27.7557Z" fill="#475569"/>
<path d="M98 30.4318V21.7045H101.051C101.659 21.7045 102.161 21.8097 102.555 22.0199C102.95 22.2273 103.244 22.5071 103.438 22.8594C103.631 23.2088 103.727 23.5966 103.727 24.0227C103.727 24.3977 103.661 24.7074 103.527 24.9517C103.396 25.196 103.223 25.3892 103.007 25.5312C102.794 25.6733 102.562 25.7784 102.312 25.8466V25.9318C102.58 25.9489 102.848 26.0426 103.118 26.2131C103.388 26.3835 103.614 26.6278 103.795 26.946C103.977 27.2642 104.068 27.6534 104.068 28.1136C104.068 28.5511 103.969 28.9446 103.77 29.294C103.571 29.6435 103.257 29.9205 102.828 30.125C102.399 30.3295 101.841 30.4318 101.153 30.4318H98ZM99.0568 29.4943H101.153C101.844 29.4943 102.334 29.3608 102.624 29.0937C102.916 28.8239 103.062 28.4972 103.062 28.1136C103.062 27.8182 102.987 27.5455 102.837 27.2955C102.686 27.0426 102.472 26.8409 102.193 26.6903C101.915 26.5369 101.585 26.4602 101.205 26.4602H99.0568V29.4943ZM99.0568 25.5398H101.017C101.335 25.5398 101.622 25.4773 101.878 25.3523C102.136 25.2273 102.341 25.0511 102.491 24.8239C102.645 24.5966 102.722 24.3295 102.722 24.0227C102.722 23.6392 102.588 23.3139 102.321 23.0469C102.054 22.777 101.631 22.642 101.051 22.642H99.0568V25.5398Z" fill="#475569"/>
<path d="M163.498 12.4943V16.4318H162.493V9.88636H163.464V10.9091H163.549C163.703 10.5767 163.936 10.3097 164.248 10.108C164.561 9.90341 164.964 9.80113 165.458 9.80113C165.902 9.80113 166.289 9.89204 166.622 10.0739C166.954 10.2528 167.213 10.5256 167.397 10.892C167.582 11.2557 167.674 11.7159 167.674 12.2727V16.4318H166.669V12.3409C166.669 11.8267 166.535 11.4261 166.268 11.1392C166.001 10.8494 165.635 10.7045 165.169 10.7045C164.848 10.7045 164.561 10.7741 164.308 10.9134C164.058 11.0526 163.86 11.2557 163.716 11.5227C163.571 11.7898 163.498 12.1136 163.498 12.4943Z" fill="#475569"/>
<path d="M157.991 16.5682C157.401 16.5682 156.882 16.4276 156.436 16.1463C155.993 15.8651 155.646 15.4716 155.396 14.9659C155.149 14.4602 155.026 13.8693 155.026 13.1932C155.026 12.5114 155.149 11.9162 155.396 11.4077C155.646 10.8991 155.993 10.5043 156.436 10.223C156.882 9.94176 157.401 9.80113 157.991 9.80113C158.582 9.80113 159.099 9.94176 159.543 10.223C159.989 10.5043 160.335 10.8991 160.582 11.4077C160.832 11.9162 160.957 12.5114 160.957 13.1932C160.957 13.8693 160.832 14.4602 160.582 14.9659C160.335 15.4716 159.989 15.8651 159.543 16.1463C159.099 16.4276 158.582 16.5682 157.991 16.5682ZM157.991 15.6648C158.44 15.6648 158.81 15.5497 159.099 15.3196C159.389 15.0895 159.604 14.7869 159.743 14.4119C159.882 14.0369 159.952 13.6307 159.952 13.1932C159.952 12.7557 159.882 12.348 159.743 11.9702C159.604 11.5923 159.389 11.2869 159.099 11.054C158.81 10.821 158.44 10.7045 157.991 10.7045C157.543 10.7045 157.173 10.821 156.884 11.054C156.594 11.2869 156.379 11.5923 156.24 11.9702C156.101 12.348 156.031 12.7557 156.031 13.1932C156.031 13.6307 156.101 14.0369 156.24 14.4119C156.379 14.7869 156.594 15.0895 156.884 15.3196C157.173 15.5497 157.543 15.6648 157.991 15.6648Z" fill="#475569"/>
<path d="M152.485 16.4318V9.88636H153.49V16.4318H152.485ZM152.996 8.79545C152.8 8.79545 152.631 8.72869 152.489 8.59517C152.35 8.46165 152.28 8.30113 152.28 8.11363C152.28 7.92613 152.35 7.76562 152.489 7.6321C152.631 7.49858 152.8 7.43182 152.996 7.43182C153.192 7.43182 153.36 7.49858 153.499 7.6321C153.641 7.76562 153.712 7.92613 153.712 8.11363C153.712 8.30113 153.641 8.46165 153.499 8.59517C153.36 8.72869 153.192 8.79545 152.996 8.79545Z" fill="#475569"/>
<path d="M150.972 9.88636V10.7386H147.58V9.88636H150.972ZM148.569 8.31818H149.574V14.5568C149.574 14.8409 149.615 15.054 149.698 15.196C149.783 15.3352 149.891 15.429 150.022 15.4773C150.155 15.5227 150.296 15.5455 150.444 15.5455C150.554 15.5455 150.645 15.5398 150.716 15.5284C150.787 15.5142 150.844 15.5028 150.887 15.4943L151.091 16.3977C151.023 16.4233 150.928 16.4489 150.806 16.4744C150.684 16.5028 150.529 16.517 150.341 16.517C150.057 16.517 149.779 16.456 149.506 16.3338C149.236 16.2116 149.012 16.0256 148.833 15.7756C148.657 15.5256 148.569 15.2102 148.569 14.8295V8.31818Z" fill="#475569"/>
<path d="M143.29 16.5852C142.875 16.5852 142.499 16.5071 142.161 16.3509C141.822 16.1918 141.554 15.9631 141.355 15.6648C141.156 15.3636 141.057 15 141.057 14.5739C141.057 14.1989 141.131 13.8949 141.278 13.6619C141.426 13.4261 141.624 13.2415 141.871 13.108C142.118 12.9744 142.391 12.875 142.689 12.8097C142.99 12.7415 143.293 12.6875 143.597 12.6477C143.994 12.5966 144.317 12.5582 144.564 12.5327C144.814 12.5043 144.996 12.4574 145.109 12.392C145.226 12.3267 145.284 12.2131 145.284 12.0511V12.017C145.284 11.5966 145.169 11.2699 144.939 11.0369C144.712 10.804 144.366 10.6875 143.903 10.6875C143.423 10.6875 143.047 10.7926 142.774 11.0028C142.501 11.2131 142.31 11.4375 142.199 11.6761L141.244 11.3352C141.415 10.9375 141.642 10.6278 141.926 10.4062C142.213 10.1818 142.526 10.0256 142.864 9.9375C143.205 9.84659 143.54 9.80113 143.869 9.80113C144.08 9.80113 144.321 9.8267 144.594 9.87784C144.869 9.92613 145.135 10.027 145.391 10.1804C145.649 10.3338 145.864 10.5653 146.034 10.875C146.205 11.1847 146.29 11.5994 146.29 12.1193V16.4318H145.284V15.5455H145.233C145.165 15.6875 145.051 15.8395 144.892 16.0014C144.733 16.1634 144.521 16.3011 144.257 16.4148C143.993 16.5284 143.67 16.5852 143.29 16.5852ZM143.443 15.6818C143.841 15.6818 144.176 15.6037 144.449 15.4474C144.724 15.2912 144.932 15.0895 145.071 14.8423C145.213 14.5952 145.284 14.3352 145.284 14.0625V13.142C145.241 13.1932 145.148 13.2401 145.003 13.2827C144.861 13.3224 144.696 13.358 144.509 13.3892C144.324 13.4176 144.143 13.4432 143.967 13.4659C143.794 13.4858 143.653 13.5028 143.545 13.517C143.284 13.5511 143.04 13.6065 142.812 13.6832C142.588 13.7571 142.406 13.8693 142.267 14.0199C142.131 14.1676 142.062 14.3693 142.062 14.625C142.062 14.9744 142.192 15.2386 142.45 15.4176C142.712 15.5937 143.043 15.6818 143.443 15.6818Z" fill="#475569"/>
<path d="M139.851 9.88636V10.7386H136.459V9.88636H139.851ZM137.447 8.31818H138.453V14.5568C138.453 14.8409 138.494 15.054 138.577 15.196C138.662 15.3352 138.77 15.429 138.901 15.4773C139.034 15.5227 139.175 15.5455 139.322 15.5455C139.433 15.5455 139.524 15.5398 139.595 15.5284C139.666 15.5142 139.723 15.5028 139.766 15.4943L139.97 16.3977C139.902 16.4233 139.807 16.4489 139.685 16.4744C139.562 16.5028 139.408 16.517 139.22 16.517C138.936 16.517 138.658 16.456 138.385 16.3338C138.115 16.2116 137.891 16.0256 137.712 15.7756C137.536 15.5256 137.447 15.2102 137.447 14.8295V8.31818Z" fill="#475569"/>
<path d="M130.99 12.4943V16.4318H129.985V9.88636H130.956V10.9091H131.042C131.195 10.5767 131.428 10.3097 131.74 10.108C132.053 9.90341 132.456 9.80113 132.951 9.80113C133.394 9.80113 133.782 9.89204 134.114 10.0739C134.446 10.2528 134.705 10.5256 134.89 10.892C135.074 11.2557 135.167 11.7159 135.167 12.2727V16.4318H134.161V12.3409C134.161 11.8267 134.027 11.4261 133.76 11.1392C133.493 10.8494 133.127 10.7045 132.661 10.7045C132.34 10.7045 132.053 10.7741 131.8 10.9134C131.55 11.0526 131.353 11.2557 131.208 11.5227C131.063 11.7898 130.99 12.1136 130.99 12.4943Z" fill="#475569"/>
<path d="M125.745 16.5682C125.114 16.5682 124.57 16.429 124.113 16.1506C123.658 15.8693 123.307 15.4773 123.06 14.9744C122.816 14.4687 122.694 13.8807 122.694 13.2102C122.694 12.5398 122.816 11.9489 123.06 11.4375C123.307 10.9233 123.651 10.5227 124.091 10.2358C124.534 9.94602 125.051 9.80113 125.642 9.80113C125.983 9.80113 126.32 9.85795 126.652 9.97159C126.985 10.0852 127.287 10.2699 127.56 10.5256C127.833 10.7784 128.05 11.1136 128.212 11.5312C128.374 11.9489 128.455 12.4631 128.455 13.0739V13.5H123.409V12.6307H127.432C127.432 12.2614 127.358 11.9318 127.211 11.642C127.066 11.3523 126.858 11.1236 126.588 10.956C126.321 10.7883 126.006 10.7045 125.642 10.7045C125.242 10.7045 124.895 10.804 124.603 11.0028C124.313 11.1989 124.09 11.4545 123.934 11.7699C123.777 12.0852 123.699 12.4233 123.699 12.7841V13.3636C123.699 13.858 123.784 14.277 123.955 14.6207C124.128 14.9616 124.368 15.2216 124.675 15.4006C124.982 15.5767 125.338 15.6648 125.745 15.6648C126.009 15.6648 126.248 15.6278 126.461 15.554C126.676 15.4773 126.863 15.3636 127.019 15.2131C127.175 15.0597 127.296 14.8693 127.381 14.642L128.353 14.9148C128.25 15.2443 128.078 15.5341 127.837 15.7841C127.596 16.0312 127.297 16.2244 126.942 16.3636C126.587 16.5 126.188 16.5682 125.745 16.5682Z" fill="#475569"/>
<path d="M121.367 11.3523L120.464 11.608C120.407 11.4574 120.323 11.3111 120.212 11.169C120.104 11.0241 119.957 10.9048 119.769 10.8111C119.582 10.7173 119.342 10.6705 119.049 10.6705C118.648 10.6705 118.315 10.7628 118.048 10.9474C117.783 11.1293 117.651 11.3608 117.651 11.642C117.651 11.892 117.742 12.0895 117.924 12.2344C118.106 12.3793 118.39 12.5 118.776 12.5966L119.748 12.8352C120.333 12.9773 120.769 13.1946 121.056 13.4872C121.343 13.777 121.487 14.1506 121.487 14.608C121.487 14.983 121.379 15.3182 121.163 15.6136C120.95 15.9091 120.651 16.142 120.268 16.3125C119.884 16.483 119.438 16.5682 118.93 16.5682C118.262 16.5682 117.71 16.4233 117.272 16.1335C116.835 15.8437 116.558 15.4205 116.441 14.8636L117.396 14.625C117.487 14.9773 117.658 15.2415 117.911 15.4176C118.167 15.5937 118.501 15.6818 118.913 15.6818C119.381 15.6818 119.754 15.5824 120.029 15.3835C120.308 15.1818 120.447 14.9403 120.447 14.6591C120.447 14.4318 120.367 14.2415 120.208 14.0881C120.049 13.9318 119.805 13.8153 119.475 13.7386L118.384 13.483C117.785 13.3409 117.344 13.1207 117.063 12.8224C116.785 12.5213 116.646 12.1449 116.646 11.6932C116.646 11.3239 116.749 10.9972 116.957 10.7131C117.167 10.429 117.452 10.206 117.813 10.044C118.177 9.8821 118.589 9.80113 119.049 9.80113C119.697 9.80113 120.205 9.94318 120.575 10.2273C120.947 10.5114 121.211 10.8864 121.367 11.3523Z" fill="#475569"/>
<path d="M112.491 16.5682C111.86 16.5682 111.316 16.429 110.859 16.1506C110.404 15.8693 110.053 15.4773 109.806 14.9744C109.562 14.4687 109.44 13.8807 109.44 13.2102C109.44 12.5398 109.562 11.9489 109.806 11.4375C110.053 10.9233 110.397 10.5227 110.837 10.2358C111.281 9.94602 111.798 9.80113 112.388 9.80113C112.729 9.80113 113.066 9.85795 113.398 9.97159C113.731 10.0852 114.033 10.2699 114.306 10.5256C114.579 10.7784 114.796 11.1136 114.958 11.5312C115.12 11.9489 115.201 12.4631 115.201 13.0739V13.5H110.156V12.6307H114.178C114.178 12.2614 114.104 11.9318 113.957 11.642C113.812 11.3523 113.604 11.1236 113.335 10.956C113.067 10.7883 112.752 10.7045 112.388 10.7045C111.988 10.7045 111.641 10.804 111.349 11.0028C111.059 11.1989 110.836 11.4545 110.68 11.7699C110.523 12.0852 110.445 12.4233 110.445 12.7841V13.3636C110.445 13.858 110.531 14.277 110.701 14.6207C110.874 14.9616 111.114 15.2216 111.421 15.4006C111.728 15.5767 112.085 15.6648 112.491 15.6648C112.755 15.6648 112.994 15.6278 113.207 15.554C113.423 15.4773 113.609 15.3636 113.765 15.2131C113.921 15.0597 114.042 14.8693 114.127 14.642L115.099 14.9148C114.996 15.2443 114.825 15.5341 114.583 15.7841C114.342 16.0312 114.043 16.2244 113.688 16.3636C113.333 16.5 112.934 16.5682 112.491 16.5682Z" fill="#475569"/>
<path d="M105.481 16.4318V9.88636H106.452V10.875H106.521C106.64 10.5511 106.856 10.2884 107.168 10.0866C107.481 9.88494 107.833 9.78409 108.225 9.78409C108.299 9.78409 108.391 9.78551 108.502 9.78835C108.613 9.79119 108.697 9.79545 108.754 9.80113V10.8239C108.719 10.8153 108.641 10.8026 108.519 10.7855C108.4 10.7656 108.273 10.7557 108.14 10.7557C107.822 10.7557 107.538 10.8224 107.288 10.956C107.04 11.0866 106.844 11.2685 106.7 11.5014C106.558 11.7315 106.487 11.9943 106.487 12.2898V16.4318H105.481Z" fill="#475569"/>
<path d="M98 16.4318V7.70454H100.949C101.634 7.70454 102.193 7.82812 102.628 8.07528C103.065 8.3196 103.389 8.65057 103.599 9.06818C103.81 9.48579 103.915 9.9517 103.915 10.4659C103.915 10.9801 103.81 11.4474 103.599 11.8679C103.392 12.2884 103.071 12.6236 102.636 12.8736C102.202 13.1207 101.645 13.2443 100.966 13.2443H98.8523V12.3068H100.932C101.401 12.3068 101.777 12.2259 102.061 12.0639C102.345 11.902 102.551 11.6832 102.679 11.4077C102.81 11.1293 102.875 10.8153 102.875 10.4659C102.875 10.1165 102.81 9.80398 102.679 9.52841C102.551 9.25284 102.344 9.03693 102.057 8.88068C101.77 8.72159 101.389 8.64204 100.915 8.64204H99.0568V16.4318H98Z" fill="#475569"/>
</g>
</g>
</g>
</svg>
